# xmcd
#
# Track frame offsets: 
#        150
#        13113
#        32096
#        52640
#        65937
#        86566
#        111217
#        132172
#        152517
#        170939
#        181029
#        200345
#
# Disc length: 2890 seconds
#
# Revision: 2
# Processed by: cddbd v1.5.2PL0 Copyright (c) Steve Scherf et al.
# Submitted via: ExactAudioCopy v0.95b3
#
DISCID=9b0b480c
DTITLE=Maryla Rodowicz - Maryla i przyjaciele
DYEAR=2003
DGENRE=
TTITLE0=01 Gaj_z Markiem Grechut¹
TTITLE1=02 Ludzie gadanie_z Sewerynem Krajewskim
TTITLE2=03 Addio pomidory_z Andrzejem Rosiewiczem
TTITLE3=04 Niebieska laska_z Helen¹ Vondrackow¹
TTITLE4=05 Dzis prawdziwych cyganów ju¿ nie ma_z Stanem Borysem
TTITLE5=06 Wróc¹ ch³opcy z wojny_z Danielem Osbryskim
TTITLE6=07 Nasza mama_z Ad¹ Rusowicz i Wojciechem Kord¹
TTITLE7=08 Przytul mnie_ze S³awomirem £osowskim i Kombi
TTITLE8=09 Jeszcze przed chwil¹ by³es tu_z Andrzejem Zieliñskim i Skal
TTITLE8=dami
TTITLE9=10 Rajski deser_z Markiem Grachut¹
TTITLE10=11 Ma³goska_z Helena Vondrackowa
TTITLE11=12 Nikt mnie nie Strzeli_z T_Raperami znad Wis³y
EXTD=
EXTT0=
EXTT1=
EXTT2=
EXTT3=
EXTT4=
EXTT5=
EXTT6=
EXTT7=
EXTT8=
EXTT9=
EXTT10=
EXTT11=
PLAYORDER=
